<svg width="53" height="53" viewBox="0 0 53 53" fill="none" xmlns="http://www.w3.org/2000/svg">
<rect width="53" height="53" rx="10" fill="#FF982F" fill-opacity="0.1"/>
<path d="M19.991 20.4065L17.6951 20.5839C17.0562 20.6332 16.4872 20.9681 16.1339 21.5025L13.4861 25.5071C13.2182 25.9124 13.1756 26.4196 13.3721 26.8639C13.5687 27.3081 13.9727 27.6178 14.4527 27.6921L16.5549 28.0177C17.0466 25.408 18.2238 22.8048 19.991 20.4065Z" fill="#FF982F"/>
<path d="M24.9824 36.4455L25.308 38.5477C25.3824 39.0278 25.692 39.4317 26.1363 39.6282C26.3211 39.71 26.5167 39.7504 26.7114 39.7504C26.9848 39.7504 27.2564 39.6707 27.4931 39.5142L31.4978 36.8665C32.0322 36.5131 32.367 35.9441 32.4163 35.3054L32.5937 33.0095C30.1953 34.7766 27.5921 35.9538 24.9824 36.4455Z" fill="#FF982F"/>
<path d="M24.1918 34.9885C24.2648 34.9885 24.3382 34.9825 24.4114 34.9703C25.5048 34.7875 26.5586 34.4796 27.5638 34.0765L18.9238 25.4365C18.5207 26.4417 18.2127 27.4955 18.0299 28.5888C17.9579 29.0198 18.1025 29.4589 18.4114 29.7679L23.2324 34.5889C23.4889 34.8453 23.8351 34.9885 24.1918 34.9885Z" fill="#FF982F"/>
<path d="M37.6379 24.9993C39.7522 20.9117 39.8305 16.5922 39.72 14.5664C39.6821 13.8722 39.1287 13.3188 38.4345 13.281C38.1047 13.263 37.7138 13.25 37.2731 13.25C35.0079 13.25 31.4236 13.5931 28.0016 15.3631C25.2822 16.7697 21.7162 19.867 19.6123 23.9373C19.6371 23.9568 19.6614 23.9774 19.6843 24.0002L29.0008 33.3167C29.0237 33.3396 29.0442 33.3638 29.0636 33.3887C33.134 31.2847 36.2312 27.7188 37.6379 24.9993ZM28.6589 18.8523C30.1723 17.3388 32.635 17.3387 34.1486 18.8523C34.8818 19.5855 35.2856 20.5603 35.2856 21.5972C35.2856 22.6341 34.8818 23.6089 34.1486 24.3421C33.3919 25.0988 32.3977 25.4772 31.4038 25.4773C30.4095 25.4773 29.4157 25.099 28.6589 24.3421C27.9257 23.6089 27.5218 22.6341 27.5218 21.5972C27.5218 20.5603 27.9257 19.5855 28.6589 18.8523Z" fill="#FF982F"/>
<path d="M29.7564 23.2441C30.6645 24.1522 32.1422 24.1523 33.0503 23.2441C33.4902 22.8042 33.7325 22.2193 33.7325 21.5972C33.7325 20.975 33.4902 20.3902 33.0503 19.9503C32.5963 19.4962 31.9998 19.2692 31.4034 19.2692C30.8069 19.2692 30.2105 19.4962 29.7564 19.9503C29.3166 20.3902 29.0742 20.975 29.0742 21.5972C29.0742 22.2193 29.3165 22.8042 29.7564 23.2441Z" fill="#FF982F"/>
<path d="M14.042 35.0888C14.2407 35.0888 14.4394 35.013 14.591 34.8614L17.1258 32.3266C17.429 32.0234 17.429 31.5318 17.1258 31.2286C16.8226 30.9254 16.331 30.9254 16.0278 31.2286L13.493 33.7634C13.1898 34.0666 13.1898 34.5582 13.493 34.8614C13.6446 35.013 13.8433 35.0888 14.042 35.0888Z" fill="#FF982F"/>
<path d="M19.4487 33.5516C19.1455 33.2484 18.6539 33.2484 18.3507 33.5516L13.4774 38.425C13.1742 38.7282 13.1742 39.2197 13.4774 39.5229C13.629 39.6745 13.8277 39.7503 14.0264 39.7503C14.2251 39.7503 14.4238 39.6745 14.5754 39.5229L19.4486 34.6496C19.7519 34.3464 19.7519 33.8548 19.4487 33.5516Z" fill="#FF982F"/>
<path d="M20.6742 35.8746L18.1395 38.4093C17.8363 38.7125 17.8363 39.2041 18.1395 39.5073C18.2911 39.6589 18.4898 39.7347 18.6885 39.7347C18.8871 39.7347 19.0859 39.6589 19.2374 39.5073L21.7722 36.9725C22.0754 36.6693 22.0754 36.1778 21.7722 35.8746C21.469 35.5714 20.9774 35.5714 20.6742 35.8746Z" fill="#FF982F"/>
</svg>
