<svg width="53" height="53" viewBox="0 0 53 53" fill="none" xmlns="http://www.w3.org/2000/svg">
<rect width="53" height="53" rx="10" fill="#539AFA" fill-opacity="0.1"/>
<path d="M33.4695 19.0164H37.9109L33.2363 14.4252V18.7835C33.2363 18.9119 33.3409 19.0164 33.4695 19.0164Z" fill="#2F80ED"/>
<path d="M33.4696 20.4812C32.5335 20.4812 31.7718 19.7196 31.7718 18.7835V14H19.5922C18.0853 14 16.8594 15.2259 16.8594 16.7328V36.2672C16.8594 37.7741 18.0853 39 19.5922 39H35.6109C37.118 39 38.3438 37.7741 38.3438 36.2672V20.4812H33.4696ZM31.7954 32.9453H22.3617C21.9572 32.9453 21.6293 32.6174 21.6293 32.2129C21.6293 31.8084 21.9572 31.4805 22.3617 31.4805H31.7954C32.2001 31.4805 32.5279 31.8084 32.5279 32.2129C32.5279 32.6174 32.2001 32.9453 31.7954 32.9453ZM21.6293 29.2832C21.6293 28.8787 21.9572 28.5508 22.3617 28.5508H30.78C31.1846 28.5508 31.5124 28.8787 31.5124 29.2832C31.5124 29.6877 31.1843 30.0156 30.78 30.0156H22.3617C21.9572 30.0156 21.6293 29.6877 21.6293 29.2832ZM32.6861 27.0859H22.3617C21.9572 27.0859 21.6293 26.758 21.6293 26.3535C21.6293 25.949 21.9572 25.6211 22.3617 25.6211H32.6861C33.0906 25.6211 33.4185 25.949 33.4185 26.3535C33.4185 26.758 33.0906 27.0859 32.6861 27.0859Z" fill="#539AFA"/>
</svg>
