<svg width="53" height="53" viewBox="0 0 53 53" fill="none" xmlns="http://www.w3.org/2000/svg">
<rect width="53" height="53" rx="10" fill="#A157FF" fill-opacity="0.1"/>
<path d="M40.0966 31.333C39.8745 31.0407 39.5748 30.8125 39.2335 30.6773C38.6363 30.4408 37.9881 30.49 37.4432 30.8047L33.8452 32.882C33.8248 33.1855 33.7672 33.492 33.6665 33.7958C33.0481 35.6616 31.0511 36.6954 29.1525 36.1866L25.5959 35.2336C25.1583 35.1164 24.8986 34.6666 25.0158 34.229C25.1331 33.7914 25.5829 33.5316 26.0205 33.6489L29.6314 34.6164C30.7254 34.9095 31.85 34.2604 32.1431 33.1663C32.4362 32.0723 31.787 30.9478 30.693 30.6546L25.1801 29.1775C24.1219 28.8939 23.0166 29.0394 22.0678 29.5872L15.1935 33.5561C14.8012 33.7827 14.6667 34.2844 14.8933 34.6767L18.3072 40.5898C18.416 40.7783 18.5951 40.9157 18.8053 40.972C19.0154 41.0284 19.2393 40.9989 19.4277 40.8901L22.5279 39.1002L29.1594 39.528C29.9701 39.5802 30.7705 39.3931 31.4742 38.9869L39.494 34.3567C40.5491 33.7474 40.8582 32.3355 40.0966 31.333Z" fill="#A45EFE"/>
<path d="M22.1826 26.125H33.1201C33.5731 26.125 33.9404 25.7577 33.9404 25.3046C33.9404 23.1274 32.8281 21.2052 31.142 20.0759C30.2335 20.9432 29.0036 21.4765 27.6514 21.4765C26.2992 21.4765 25.0692 20.9432 24.1607 20.0759C22.4746 21.2052 21.3623 23.1274 21.3623 25.3046C21.3623 25.7577 21.7296 26.125 22.1826 26.125Z" fill="#A45EFE"/>
<path d="M27.6514 19.8359C29.5391 19.8359 31.0693 18.3057 31.0693 16.418C31.0693 14.5303 29.5391 13 27.6514 13C25.7637 13 24.2334 14.5303 24.2334 16.418C24.2334 18.3057 25.7637 19.8359 27.6514 19.8359Z" fill="#A45EFE"/>
</svg>
