<svg width="70" height="70" viewBox="0 0 70 70" fill="none" xmlns="http://www.w3.org/2000/svg">
<rect width="70" height="70" rx="13" fill="#FF982F" fill-opacity="0.1"/>
<path d="M13.52 30.628C14.6027 30.1987 15.6853 29.648 16.768 28.976C17.8693 28.304 18.84 27.5107 19.68 26.596H22.06V46H18.672V31.132C18.168 31.524 17.5333 31.9067 16.768 32.28C16.0027 32.6533 15.2653 32.9613 14.556 33.204L13.52 30.628ZM41.6141 36.284C41.6141 39.5507 41.0167 42.0613 39.8221 43.816C38.6274 45.552 36.9754 46.42 34.8661 46.42C32.7567 46.42 31.1047 45.552 29.9101 43.816C28.7154 42.0613 28.1181 39.5507 28.1181 36.284C28.1181 34.66 28.2674 33.2227 28.5661 31.972C28.8834 30.7027 29.3314 29.6387 29.9101 28.78C30.5074 27.9213 31.2167 27.268 32.0381 26.82C32.8781 26.372 33.8207 26.148 34.8661 26.148C36.9754 26.148 38.6274 27.0253 39.8221 28.78C41.0167 30.516 41.6141 33.0173 41.6141 36.284ZM38.1141 36.284C38.1141 35.276 38.0581 34.3333 37.9461 33.456C37.8341 32.5787 37.6474 31.8227 37.3861 31.188C37.1434 30.5347 36.8167 30.0213 36.4061 29.648C35.9954 29.2747 35.4821 29.088 34.8661 29.088C34.2501 29.088 33.7274 29.2747 33.2981 29.648C32.8874 30.0213 32.5514 30.5347 32.2901 31.188C32.0474 31.8227 31.8701 32.5787 31.7581 33.456C31.6647 34.3333 31.6181 35.276 31.6181 36.284C31.6181 37.292 31.6647 38.2347 31.7581 39.112C31.8701 39.9893 32.0474 40.7547 32.2901 41.408C32.5514 42.0427 32.8874 42.5467 33.2981 42.92C33.7274 43.2933 34.2501 43.48 34.8661 43.48C35.4821 43.48 35.9954 43.2933 36.4061 42.92C36.8167 42.5467 37.1434 42.0427 37.3861 41.408C37.6474 40.7547 37.8341 39.9893 37.9461 39.112C38.0581 38.2347 38.1141 37.292 38.1141 36.284ZM44.2841 36.564H49.2681V31.076H52.2921V36.564H57.2761V39.42H52.2921V44.908H49.2681V39.42H44.2841V36.564Z" fill="#FF982F"/>
</svg>
