<svg width="53" height="53" viewBox="0 0 53 53" fill="none" xmlns="http://www.w3.org/2000/svg">
<rect width="53" height="53" rx="10" fill="#8CDAC5" fill-opacity="0.1"/>
<path d="M27.2257 20.6641C24.1315 20.6641 21.6143 23.1813 21.6143 26.2752C21.6143 29.3694 24.1315 31.8866 27.2257 31.8866C30.3196 31.8866 32.8368 29.3694 32.8368 26.2752C32.8368 23.1813 30.3196 20.6641 27.2257 20.6641ZM30.5571 25.2185L26.5372 29.2384C26.3685 29.4072 26.1471 29.4917 25.9261 29.4917C25.705 29.4917 25.4839 29.4074 25.3151 29.2384L23.7789 27.7022C23.4414 27.365 23.4414 26.8179 23.7789 26.4804C24.1162 26.1429 24.6633 26.1429 25.0008 26.4804L25.9261 27.4057L29.3353 23.9967C29.6725 23.6592 30.2196 23.6592 30.5571 23.9967C30.8946 24.3339 30.8946 24.881 30.5571 25.2185Z" fill="#8CDAC5"/>
<path d="M39.736 19.5402L39.7351 19.5173C39.7223 19.2344 39.7137 18.9351 39.7086 18.6021C39.6845 16.9783 38.3937 15.6351 36.7696 15.5443C33.3836 15.3553 30.7641 14.2512 28.526 12.0697L28.5069 12.0515C27.7769 11.3822 26.6757 11.3822 25.9455 12.0515L25.9264 12.0697C23.6882 14.2512 21.0688 15.3553 17.6827 15.5445C16.0589 15.6351 14.7679 16.9783 14.7438 18.6023C14.7389 18.9331 14.7301 19.2323 14.7173 19.5173L14.7159 19.5705C14.6501 23.0233 14.5683 27.3205 16.0059 31.2209C16.7963 33.3657 17.9935 35.2302 19.5638 36.7628C21.3524 38.5082 23.695 39.8939 26.5265 40.8811C26.6186 40.9133 26.7143 40.9393 26.8119 40.9589C26.9494 40.9863 27.0878 41 27.2262 41C27.3646 41 27.5032 40.9863 27.6405 40.9589C27.738 40.9393 27.8344 40.913 27.927 40.8807C30.7552 39.8916 33.0953 38.5053 34.8822 36.7601C36.4519 35.2271 37.6491 33.3621 38.4402 31.2168C39.8831 27.3048 39.8016 22.9995 39.736 19.5402ZM27.2257 33.6147C23.1786 33.6147 19.8863 30.3223 19.8863 26.2752C19.8863 22.2281 23.1786 18.9358 27.2257 18.9358C31.2726 18.9358 34.5652 22.2281 34.5652 26.2752C34.5652 30.3223 31.2726 33.6147 27.2257 33.6147Z" fill="#8CDAC5"/>
</svg>
