<svg width="30" height="31" viewBox="0 0 30 31" fill="none" xmlns="http://www.w3.org/2000/svg">
<rect y="0.894043" width="30" height="30" rx="8" fill="#FF8100" fill-opacity="0.1"/>
<g clip-path="url(#clip0)">
<path d="M15.0006 23.894C16.096 22.6667 21.0538 16.9426 21.0538 13.9473C21.0538 10.6041 18.3437 7.89404 15.0006 7.89404C11.6575 7.89404 8.94727 10.6041 8.94727 13.9473C8.94727 16.9426 13.9053 22.6667 15.0006 23.894ZM15.0006 11.3531C16.4334 11.3531 17.5948 12.5145 17.5948 13.9473C17.5948 15.3801 16.4334 16.5416 15.0006 16.5416C13.5677 16.5416 12.4063 15.3801 12.4063 13.9473C12.4078 12.5152 13.5684 11.3546 15.0006 11.3531Z" fill="#FF8100"/>
</g>
<defs>
<clipPath id="clip0">
<rect x="7" y="7.89404" width="16" height="16" fill="white"/>
</clipPath>
</defs>
</svg>
