<svg width="30" height="31" viewBox="0 0 30 31" fill="none" xmlns="http://www.w3.org/2000/svg">
<rect y="0.894043" width="30" height="30" rx="8" fill="#FF8100" fill-opacity="0.1"/>
<g clip-path="url(#clip0)">
<path d="M20.7498 21.3939C21.0645 21.3939 21.3372 21.29 21.569 21.0848L17.6026 17.1183C17.5074 17.1864 17.4152 17.2527 17.3281 17.3157C17.0312 17.5344 16.7903 17.705 16.6053 17.8273C16.4204 17.9499 16.1743 18.0748 15.8671 18.2023C15.5597 18.33 15.2733 18.3937 15.0076 18.3937H14.9998H14.9921C14.7264 18.3937 14.44 18.3301 14.1326 18.2023C13.8252 18.0748 13.5791 17.9499 13.3944 17.8273C13.2094 17.705 12.9686 17.5344 12.6716 17.3157C12.5889 17.255 12.4971 17.1884 12.3978 17.1172L8.43066 21.0848C8.66245 21.29 8.93531 21.3939 9.24998 21.3939H20.7498Z" fill="#FF8100"/>
<path d="M8.78915 14.6207C8.49234 14.4228 8.22914 14.1962 8 13.9409V19.9757L11.496 16.4797C10.7966 15.9915 9.89546 15.3725 8.78915 14.6207Z" fill="#FF8100"/>
<path d="M21.2183 14.6207C20.1541 15.3409 19.2497 15.961 18.5049 16.4811L21.9995 19.9759V13.9409C21.7754 14.1911 21.5151 14.4175 21.2183 14.6207Z" fill="#FF8100"/>
<path d="M20.7507 10.394H9.2509C8.8497 10.394 8.54126 10.5295 8.32518 10.8002C8.10893 11.071 8.00098 11.4097 8.00098 11.8158C8.00098 12.1439 8.14423 12.4993 8.43061 12.8823C8.717 13.2651 9.02173 13.5658 9.34466 13.7845C9.5217 13.9096 10.0556 14.2808 10.9463 14.8979C11.4271 15.2311 11.8453 15.5215 12.2046 15.7721C12.5109 15.9855 12.775 16.1703 12.9931 16.3237C13.0181 16.3413 13.0575 16.3694 13.1098 16.4068C13.1661 16.4472 13.2373 16.4986 13.3252 16.562C13.4945 16.6844 13.6351 16.7834 13.7471 16.859C13.8589 16.9346 13.9944 17.0191 14.1534 17.1129C14.3122 17.2065 14.462 17.277 14.6026 17.3238C14.7433 17.3706 14.8735 17.3941 14.9932 17.3941H15.001H15.0088C15.1285 17.3941 15.2588 17.3706 15.3994 17.3238C15.54 17.277 15.6897 17.2067 15.8486 17.1129C16.0075 17.0191 16.1428 16.9344 16.255 16.859C16.367 16.7834 16.5076 16.6845 16.6769 16.562C16.7646 16.4986 16.8358 16.4472 16.8921 16.4069C16.9444 16.3694 16.9838 16.3414 17.0089 16.3237C17.1788 16.2055 17.4436 16.0214 17.7995 15.7743C18.4472 15.3243 19.4011 14.6619 20.6652 13.7845C21.0454 13.519 21.363 13.1986 21.6183 12.8237C21.8731 12.4488 22.0008 12.0556 22.0008 11.6441C22.0008 11.3003 21.877 11.0062 21.6298 10.7612C21.3823 10.5165 21.0893 10.394 20.7507 10.394Z" fill="#FF8100"/>
</g>
<defs>
<clipPath id="clip0">
<rect x="8" y="8.89404" width="14" height="14" fill="white"/>
</clipPath>
</defs>
</svg>
