<svg width="30" height="30" viewBox="0 0 30 30" fill="none" xmlns="http://www.w3.org/2000/svg">
<rect width="30" height="30" rx="8" fill="#FF8100" fill-opacity="0.1"/>
<path d="M21.2964 17.3458C20.378 17.3458 19.4763 17.2021 18.6218 16.9197C18.2031 16.7769 17.6884 16.9079 17.4328 17.1704L15.7462 18.4436C13.7903 17.3995 12.5854 16.1951 11.5556 14.2538L12.7913 12.6111C13.1124 12.2905 13.2275 11.8221 13.0896 11.3827C12.806 10.5237 12.6619 9.62242 12.6619 8.70367C12.6619 8.03996 12.122 7.5 11.4583 7.5H8.70363C8.03996 7.5 7.5 8.03996 7.5 8.70363C7.5 16.311 13.689 22.5 21.2964 22.5C21.96 22.5 22.5 21.96 22.5 21.2963V18.5493C22.5 17.8857 21.96 17.3458 21.2964 17.3458Z" fill="#FF8100"/>
</svg>
