<svg width="70" height="70" viewBox="0 0 70 70" fill="none" xmlns="http://www.w3.org/2000/svg">
<path d="M35 53.4569C36.1674 53.4569 37.3098 53.3469 38.418 53.1386V43.0951C38.418 42.3634 38.8078 41.6873 39.4407 41.3204C42.1831 39.7316 43.8867 36.7863 43.8867 33.6327C43.8867 31.1514 42.8704 28.8577 41.1523 27.217V30.8983C41.1523 31.584 40.8095 32.2244 40.2391 32.6046L36.1375 35.339C35.4486 35.7983 34.5514 35.7983 33.8625 35.339L29.7609 32.6046C29.1905 32.2244 28.8477 31.584 28.8477 30.8983V27.217C27.1291 28.8577 26.1133 31.1514 26.1133 33.6327C26.1133 36.7863 27.8169 39.7316 30.5593 41.3204C31.1922 41.6868 31.582 42.3634 31.582 43.0951V53.1381C32.6902 53.3469 33.8326 53.4569 35 53.4569Z" fill="#CBE1FD"/>
<path d="M35 16.543C24.823 16.543 16.543 24.823 16.543 35C16.543 42.5008 21.0408 48.9699 27.4805 51.8543V44.2109C24.0801 41.7884 22.0117 37.838 22.0117 33.6328C22.0117 28.3189 25.1979 23.5947 30.1283 21.5973C30.7607 21.3409 31.4784 21.4157 32.0445 21.797C32.6101 22.1783 32.9492 22.8155 32.9492 23.4975V29.8009L35 31.1681L37.0508 29.8009V23.498C37.0508 22.816 37.3899 22.1783 37.9555 21.797C38.5216 21.4157 39.2399 21.3415 39.8717 21.5973C44.8021 23.5947 47.9883 28.3189 47.9883 33.6328C47.9883 37.838 45.9199 41.7884 42.5195 44.2109V51.8543C48.9592 48.9699 53.457 42.5008 53.457 35C53.457 24.823 45.177 16.543 35 16.543Z" fill="#CBE1FD"/>
<path d="M67.9492 26.1133H64.4234C63.8343 24.1618 63.053 22.2766 62.0879 20.48L64.4859 18.0821C65.2864 17.281 65.2864 15.9827 64.4859 15.1817L54.8183 5.51414C54.4338 5.12962 53.912 4.91333 53.3684 4.91333C52.8242 4.91333 52.3029 5.12962 51.9184 5.51414L49.52 7.91206C47.7234 6.94702 45.8376 6.1657 43.8867 5.57663V2.05078C43.8867 0.918045 42.9687 0 41.8359 0H28.1641C27.0313 0 26.1133 0.918045 26.1133 2.05078V5.57663C24.1624 6.1657 22.2766 6.94702 20.48 7.91206L18.0821 5.51414C17.6971 5.12962 17.1758 4.91333 16.6316 4.91333C16.088 4.91333 15.5662 5.12962 15.1817 5.51414L5.51468 15.1817C4.71359 15.9822 4.71359 17.281 5.51468 18.0821L7.91206 20.48C6.94702 22.2766 6.1657 24.1618 5.57716 26.1133H2.05078C0.918045 26.1133 0 27.0313 0 28.1641V41.8359C0 42.9687 0.918045 43.8867 2.05078 43.8867H5.57663C6.1657 45.8382 6.94702 47.7234 7.91206 49.52L5.51414 51.9179C4.71359 52.719 4.71359 54.0173 5.51414 54.8183L15.1817 64.4859C15.5662 64.8704 16.088 65.0867 16.6316 65.0867C17.1758 65.0867 17.6971 64.8704 18.0816 64.4859L20.48 62.0879C22.2766 63.053 24.1618 63.8348 26.1133 64.4234V67.9492C26.1133 69.082 27.0313 70 28.1641 70H41.8359C42.9681 70 43.8867 69.082 43.8867 67.9492V64.4234C45.8376 63.8343 47.7229 63.053 49.52 62.0879L51.9179 64.4859C52.3024 64.8704 52.8242 65.0867 53.3678 65.0867C53.912 65.0867 54.4338 64.8704 54.8178 64.4859L64.4853 54.8183C65.2864 54.0173 65.2864 52.719 64.4853 51.9179L62.0874 49.52C63.053 47.7229 63.8343 45.8376 64.4228 43.8867H67.9492C69.082 43.8867 70 42.9681 70 41.8359V28.1641C70 27.0313 69.082 26.1133 67.9492 26.1133ZM35 57.5586C22.5613 57.5586 12.4414 47.4387 12.4414 35C12.4414 22.5613 22.5613 12.4414 35 12.4414C47.4387 12.4414 57.5586 22.5613 57.5586 35C57.5586 47.4387 47.4387 57.5586 35 57.5586Z" fill="#CBE1FD"/>
</svg>
