<svg width="73" height="61" viewBox="0 0 73 61" fill="none" xmlns="http://www.w3.org/2000/svg">
<path d="M50.542 0.152588H22.4585C21.1657 0.152588 20.1182 1.2001 20.1182 2.49292V14.1943H52.8823V2.49278C52.8823 1.2001 51.8348 0.152588 50.542 0.152588Z" fill="#8CDAC5" fill-opacity="0.3"/>
<path d="M54.6764 18.8748H18.3261L6.3125 37.597H66.69L54.6764 18.8748Z" fill="#8CDAC5" fill-opacity="0.3"/>
<path d="M70.0447 42.2776H2.95655C1.66401 42.2776 0.616211 43.3254 0.616211 44.6179V58.6597C0.616211 59.9521 1.66401 61 2.95655 61H70.0448C71.3372 61 72.3851 59.9522 72.3851 58.6597V44.6179C72.385 43.3254 71.3372 42.2776 70.0447 42.2776ZM31.0399 51.6388H16.9983C15.7055 51.6388 14.6579 50.5913 14.6579 49.2985C14.6579 48.0056 15.7055 46.9581 16.9983 46.9581H31.04C32.3328 46.9581 33.3803 48.0056 33.3803 49.2985C33.3802 50.5913 32.3327 51.6388 31.0399 51.6388ZM51.3224 51.6388C50.03 51.6388 48.9821 50.591 48.9821 49.2985C48.9821 48.0061 50.0299 46.9581 51.3224 46.9581C52.6149 46.9581 53.6627 48.0059 53.6627 49.2985C53.6627 50.591 52.6149 51.6388 51.3224 51.6388ZM60.6836 51.6388C59.3912 51.6388 58.3433 50.591 58.3433 49.2985C58.3433 48.0061 59.3911 46.9581 60.6836 46.9581C61.9761 46.9581 63.0239 48.0059 63.0239 49.2985C63.0238 50.591 61.976 51.6388 60.6836 51.6388Z" fill="#8CDAC5" fill-opacity="0.3"/>
</svg>
