<svg width="68" height="68" viewBox="0 0 68 68" fill="none" xmlns="http://www.w3.org/2000/svg">
<path d="M45.2617 35.9922H35.9922V45.2617C40.7053 44.4302 44.4302 40.7053 45.2617 35.9922Z" fill="#FF8100" fill-opacity="0.3"/>
<path d="M35.9922 22.7383V32.0078H45.2617C44.4302 27.2947 40.7053 23.5698 35.9922 22.7383Z" fill="#FF8100" fill-opacity="0.3"/>
<path d="M32.0078 45.2617V35.9922H22.7383C23.5698 40.7053 27.2947 44.4302 32.0078 45.2617Z" fill="#FF8100" fill-opacity="0.3"/>
<path d="M18.7046 32.0078C19.6003 25.0934 25.0929 19.6008 32.0074 18.7051V13.3774C22.1701 14.3204 14.3199 22.1706 13.377 32.0078H18.7046Z" fill="#FF8100" fill-opacity="0.3"/>
<path d="M35.9922 18.7051C42.9067 19.6008 48.3993 25.0934 49.295 32.0078H54.6226C53.6796 22.1706 45.8295 14.3204 35.9922 13.3774V18.7051Z" fill="#FF8100" fill-opacity="0.3"/>
<path d="M22.7383 32.0078H32.0078V22.7383C27.2947 23.5698 23.5698 27.2947 22.7383 32.0078Z" fill="#FF8100" fill-opacity="0.3"/>
<path d="M5 0C2.23858 0 0 2.23858 0 5V63C0 65.7614 2.23858 68 5 68H63C65.7614 68 68 65.7614 68 63V5C68 2.23858 65.7614 0 63 0H5ZM9.27802 11.0431C9.27802 9.94284 10.1887 9.05091 11.289 9.05091C12.3893 9.05091 13.3 9.94284 13.3 11.0431C13.3 12.1433 12.3893 13.0353 11.289 13.0353C10.1887 13.0353 9.27802 12.1433 9.27802 11.0431ZM13.3001 58.9491H11.2702C10.1699 58.9491 9.27802 58.0572 9.27802 56.9569C9.27802 55.8567 10.1887 54.9647 11.289 54.9647C12.3893 54.9647 13.3 55.8567 13.3 56.9569V58.949C13.3 58.949 13.3 58.9491 13.3001 58.9491ZM34 58.7031C20.3786 58.7031 9.29688 47.6214 9.29688 34C9.29688 20.3786 20.3786 9.29688 34 9.29688C47.6214 9.29688 58.7031 20.3786 58.7031 34C58.7031 47.6214 47.6214 58.7031 34 58.7031ZM58.8359 56.9569C58.8359 58.0572 57.9251 58.9491 56.8249 58.9491C55.7246 58.9491 54.8138 58.0572 54.8138 56.9569C54.8138 55.8567 55.7246 54.9647 56.8249 54.9647C57.9251 54.9647 58.8359 55.8567 58.8359 56.9569ZM58.8359 11.0431C58.8359 12.1433 57.9251 13.0353 56.8249 13.0353C55.7246 13.0353 54.8138 12.1433 54.8138 11.0431C54.8138 9.94284 55.7246 9.05091 56.8249 9.05091C57.9251 9.05091 58.8359 9.94284 58.8359 11.0431Z" fill="#FF8100" fill-opacity="0.3"/>
<path d="M32.0074 49.295C25.0929 48.3993 19.6003 42.9067 18.7046 35.9922H13.377C14.3199 45.8295 22.1701 53.6796 32.0074 54.6226V49.295Z" fill="#FF8100" fill-opacity="0.3"/>
<path d="M49.295 35.9922C48.3993 42.9067 42.9067 48.3993 35.9922 49.295V54.6226C45.8295 53.6796 53.6796 45.8295 54.6226 35.9922H49.295Z" fill="#FF8100" fill-opacity="0.3"/>
</svg>
